<svg xmlns="http://www.w3.org/2000/svg" viewBox="0 0 512 512">
  <rect width="512" height="512" rx="64" fill="#1a3a5c"/>
  <g transform="translate(60,60) scale(28)">
    <path fill="#e67e22" d="M6.428 1.151C6.708.591 7.213 0 8 0s1.292.592 1.572 1.151C9.861 1.73 10 2.431 10 3v3.691l5.17 2.585a1.5 1.5 0 0 1 .83 1.342V12a.5.5 0 0 1-.582.493l-5.507-.918-.375 2.253 1.318 1.318A.5.5 0 0 1 10.5 16h-5a.5.5 0 0 1-.354-.854l1.319-1.318-.376-2.253-5.507.918A.5.5 0 0 1 0 12v-1.382a1.5 1.5 0 0 1 .83-1.342L6 6.691V3c0-.568.14-1.271.428-1.849z"/>
  </g>
  <!-- Badge: green circle with white plus — "log a new flight" -->
  <circle cx="404" cy="404" r="88" fill="white"/>
  <circle cx="404" cy="404" r="78" fill="#27ae60"/>
  <rect x="374" y="396" width="60" height="16" rx="5" fill="white"/>
  <rect x="396" y="374" width="16" height="60" rx="5" fill="white"/>
</svg>
