<svg xmlns="http://www.w3.org/2000/svg" viewBox="0 0 512 512">
  <rect width="512" height="512" rx="64" fill="#14233A"/>
  <g transform="translate(60,60) scale(28)">
    <path fill="#FF6B35" d="M6.428 1.151C6.708.591 7.213 0 8 0s1.292.592 1.572 1.151C9.861 1.73 10 2.431 10 3v3.691l5.17 2.585a1.5 1.5 0 0 1 .83 1.342V12a.5.5 0 0 1-.582.493l-5.507-.918-.375 2.253 1.318 1.318A.5.5 0 0 1 10.5 16h-5a.5.5 0 0 1-.354-.854l1.319-1.318-.376-2.253-5.507.918A.5.5 0 0 1 0 12v-1.382a1.5 1.5 0 0 1 .83-1.342L6 6.691V3c0-.568.14-1.271.428-1.849z"/>
  </g>
  <!-- Badge: blue circle with white list bars — "aircraft list" -->
  <circle cx="404" cy="404" r="88" fill="white"/>
  <circle cx="404" cy="404" r="78" fill="#3FA7D6"/>
  <rect x="366" y="380" width="76" height="14" rx="4" fill="white"/>
  <rect x="366" y="401" width="76" height="14" rx="4" fill="white"/>
  <rect x="366" y="422" width="76" height="14" rx="4" fill="white"/>
</svg>
